<svg xmlns="http://www.w3.org/2000/svg" xmlns:xlink="http://www.w3.org/1999/xlink" version="1.1" class="marks" width="940" height="444" viewBox="0 0 940 444"><rect width="940" height="444" fill="white"/><g fill="none" stroke-miterlimit="10" transform="translate(39,27)"><g class="mark-group role-frame root" role="graphics-object" aria-roledescription="group mark container"><g transform="translate(0,0)"><path class="background" aria-hidden="true" d="M0.5,0.5h700v380h-700Z" stroke="#ddd"/><g><g class="mark-group role-axis" aria-hidden="true"><g transform="translate(0.5,380.5)"><path class="background" aria-hidden="true" d="M0,0h0v0h0Z" pointer-events="none"/><g><g class="mark-rule role-axis-grid" pointer-events="none"><line transform="translate(41,-380)" x2="0" y2="380" stroke="#ddd" stroke-width="1" opacity="1"/><line transform="translate(101,-380)" x2="0" y2="380" stroke="#ddd" stroke-width="1" opacity="1"/><line transform="translate(161,-380)" x2="0" y2="380" stroke="#ddd" stroke-width="1" opacity="1"/><line transform="translate(221,-380)" x2="0" y2="380" stroke="#ddd" stroke-width="1" opacity="1"/><line transform="translate(281,-380)" x2="0" y2="380" stroke="#ddd" stroke-width="1" opacity="1"/><line transform="translate(341,-380)" x2="0" y2="380" stroke="#ddd" stroke-width="1" opacity="1"/><line transform="translate(401,-380)" x2="0" y2="380" stroke="#ddd" stroke-width="1" opacity="1"/><line transform="translate(461,-380)" x2="0" y2="380" stroke="#ddd" stroke-width="1" opacity="1"/><line transform="translate(521,-380)" x2="0" y2="380" stroke="#ddd" stroke-width="1" opacity="1"/><line transform="translate(581,-380)" x2="0" y2="380" stroke="#ddd" stroke-width="1" opacity="1"/><line transform="translate(641,-380)" x2="0" y2="380" stroke="#ddd" stroke-width="1" opacity="1"/></g></g><path class="foreground" aria-hidden="true" d="" pointer-events="none" display="none"/></g></g><g class="mark-group role-axis" aria-hidden="true"><g transform="translate(0.5,0.5)"><path class="background" aria-hidden="true" d="M0,0h0v0h0Z" pointer-events="none"/><g><g class="mark-rule role-axis-grid" pointer-events="none"><line transform="translate(0,380)" x2="700" y2="0" stroke="#ddd" stroke-width="1" opacity="1"/><line transform="translate(0,333)" x2="700" y2="0" stroke="#ddd" stroke-width="1" opacity="1"/><line transform="translate(0,285)" x2="700" y2="0" stroke="#ddd" stroke-width="1" opacity="1"/><line transform="translate(0,238)" x2="700" y2="0" stroke="#ddd" stroke-width="1" opacity="1"/><line transform="translate(0,190)" x2="700" y2="0" stroke="#ddd" stroke-width="1" opacity="1"/><line transform="translate(0,143)" x2="700" y2="0" stroke="#ddd" stroke-width="1" opacity="1"/><line transform="translate(0,95)" x2="700" y2="0" stroke="#ddd" stroke-width="1" opacity="1"/><line transform="translate(0,48)" x2="700" y2="0" stroke="#ddd" stroke-width="1" opacity="1"/><line transform="translate(0,0)" x2="700" y2="0" stroke="#ddd" stroke-width="1" opacity="1"/></g></g><path class="foreground" aria-hidden="true" d="" pointer-events="none" display="none"/></g></g><g class="mark-group role-axis" role="graphics-symbol" aria-roledescription="axis" aria-label="X-axis titled 'Vencimento' for a time scale with values from Saturday, 15 August 2026, 12:00:00 AM to Friday, 15 December 2084, 12:00:00 AM"><g transform="translate(0.5,380.5)"><path class="background" aria-hidden="true" d="M0,0h0v0h0Z" pointer-events="none"/><g><g class="mark-rule role-axis-tick" pointer-events="none"><line transform="translate(41,0)" x2="0" y2="5" stroke="#888" stroke-width="1" opacity="1"/><line transform="translate(101,0)" x2="0" y2="5" stroke="#888" stroke-width="1" opacity="1"/><line transform="translate(161,0)" x2="0" y2="5" stroke="#888" stroke-width="1" opacity="1"/><line transform="translate(221,0)" x2="0" y2="5" stroke="#888" stroke-width="1" opacity="1"/><line transform="translate(281,0)" x2="0" y2="5" stroke="#888" stroke-width="1" opacity="1"/><line transform="translate(341,0)" x2="0" y2="5" stroke="#888" stroke-width="1" opacity="1"/><line transform="translate(401,0)" x2="0" y2="5" stroke="#888" stroke-width="1" opacity="1"/><line transform="translate(461,0)" x2="0" y2="5" stroke="#888" stroke-width="1" opacity="1"/><line transform="translate(521,0)" x2="0" y2="5" stroke="#888" stroke-width="1" opacity="1"/><line transform="translate(581,0)" x2="0" y2="5" stroke="#888" stroke-width="1" opacity="1"/><line transform="translate(641,0)" x2="0" y2="5" stroke="#888" stroke-width="1" opacity="1"/></g><g class="mark-text role-axis-label" pointer-events="none"><text text-anchor="middle" transform="translate(40.57352043929225,15)" font-family="sans-serif" font-size="10px" fill="#000" opacity="1">2030</text><text text-anchor="middle" transform="translate(100.56319519406767,15)" font-family="sans-serif" font-size="10px" fill="#000" opacity="1">2035</text><text text-anchor="middle" transform="translate(160.55286994884312,15)" font-family="sans-serif" font-size="10px" fill="#000" opacity="1">2040</text><text text-anchor="middle" transform="translate(220.5753977566058,15)" font-family="sans-serif" font-size="10px" fill="#000" opacity="1">2045</text><text text-anchor="middle" transform="translate(280.56507251138123,15)" font-family="sans-serif" font-size="10px" fill="#000" opacity="1">2050</text><text text-anchor="middle" transform="translate(340.55474726615665,15)" font-family="sans-serif" font-size="10px" fill="#000" opacity="1">2055</text><text text-anchor="middle" transform="translate(400.54442202093213,15)" font-family="sans-serif" font-size="10px" fill="#000" opacity="1">2060</text><text text-anchor="middle" transform="translate(460.5669498286948,15)" font-family="sans-serif" font-size="10px" fill="#000" opacity="1">2065</text><text text-anchor="middle" transform="translate(520.5566245834702,15)" font-family="sans-serif" font-size="10px" fill="#000" opacity="1">2070</text><text text-anchor="middle" transform="translate(580.5462993382456,15)" font-family="sans-serif" font-size="10px" fill="#000" opacity="1">2075</text><text text-anchor="middle" transform="translate(640.5359740930211,15)" font-family="sans-serif" font-size="10px" fill="#000" opacity="1">2080</text></g><g class="mark-rule role-axis-domain" pointer-events="none"><line transform="translate(0,0)" x2="700" y2="0" stroke="#888" stroke-width="1" opacity="1"/></g><g class="mark-text role-axis-title" pointer-events="none"><text text-anchor="middle" transform="translate(350,30)" font-family="sans-serif" font-size="11px" font-weight="bold" fill="#000" opacity="1">Vencimento</text></g></g><path class="foreground" aria-hidden="true" d="" pointer-events="none" display="none"/></g></g><g class="mark-group role-axis" role="graphics-symbol" aria-roledescription="axis" aria-label="Y-axis titled 'Taxa de compra (% a.a.)' for a linear scale with values from 0 to 16"><g transform="translate(0.5,0.5)"><path class="background" aria-hidden="true" d="M0,0h0v0h0Z" pointer-events="none"/><g><g class="mark-rule role-axis-tick" pointer-events="none"><line transform="translate(0,380)" x2="-5" y2="0" stroke="#888" stroke-width="1" opacity="1"/><line transform="translate(0,333)" x2="-5" y2="0" stroke="#888" stroke-width="1" opacity="1"/><line transform="translate(0,285)" x2="-5" y2="0" stroke="#888" stroke-width="1" opacity="1"/><line transform="translate(0,238)" x2="-5" y2="0" stroke="#888" stroke-width="1" opacity="1"/><line transform="translate(0,190)" x2="-5" y2="0" stroke="#888" stroke-width="1" opacity="1"/><line transform="translate(0,143)" x2="-5" y2="0" stroke="#888" stroke-width="1" opacity="1"/><line transform="translate(0,95)" x2="-5" y2="0" stroke="#888" stroke-width="1" opacity="1"/><line transform="translate(0,48)" x2="-5" y2="0" stroke="#888" stroke-width="1" opacity="1"/><line transform="translate(0,0)" x2="-5" y2="0" stroke="#888" stroke-width="1" opacity="1"/></g><g class="mark-text role-axis-label" pointer-events="none"><text text-anchor="end" transform="translate(-7,383)" font-family="sans-serif" font-size="10px" fill="#000" opacity="1">0</text><text text-anchor="end" transform="translate(-7,335.5)" font-family="sans-serif" font-size="10px" fill="#000" opacity="1">2</text><text text-anchor="end" transform="translate(-7,288)" font-family="sans-serif" font-size="10px" fill="#000" opacity="1">4</text><text text-anchor="end" transform="translate(-7,240.5)" font-family="sans-serif" font-size="10px" fill="#000" opacity="1">6</text><text text-anchor="end" transform="translate(-7,193)" font-family="sans-serif" font-size="10px" fill="#000" opacity="1">8</text><text text-anchor="end" transform="translate(-7,145.5)" font-family="sans-serif" font-size="10px" fill="#000" opacity="1">10</text><text text-anchor="end" transform="translate(-7,98)" font-family="sans-serif" font-size="10px" fill="#000" opacity="1">12</text><text text-anchor="end" transform="translate(-7,50.5)" font-family="sans-serif" font-size="10px" fill="#000" opacity="1">14</text><text text-anchor="end" transform="translate(-7,3)" font-family="sans-serif" font-size="10px" fill="#000" opacity="1">16</text></g><g class="mark-rule role-axis-domain" pointer-events="none"><line transform="translate(0,380)" x2="0" y2="-380" stroke="#888" stroke-width="1" opacity="1"/></g><g class="mark-text role-axis-title" pointer-events="none"><text text-anchor="middle" transform="translate(-22.123046875,190) rotate(-90) translate(0,-2)" font-family="sans-serif" font-size="11px" font-weight="bold" fill="#000" opacity="1">Taxa de compra (% a.a.)</text></g></g><path class="foreground" aria-hidden="true" d="" pointer-events="none" display="none"/></g></g><g class="mark-group role-scope layer_0_pathgroup" role="graphics-object" aria-roledescription="group mark container"><g transform="translate(0,0)"><path class="background" aria-hidden="true" d="M0,0h700v380h-700Z"/><g><g class="mark-line role-mark layer_0_marks" role="graphics-object" aria-roledescription="line mark container"><path aria-label="Vencimento: Aug 15, 2026; Taxa de compra (% a.a.): 10.26; Título: Tesouro IPCA+ com Juros Semestrais; Taxa (%): 10.26" role="graphics-symbol" aria-roledescription="line mark" d="M0,136.325L47.998,185.963L72.014,189.525L104.966,194.275L128.981,197.838L168.011,200.687L224.978,203.3L287.99,205.438L344.957,206.15L408.002,206.388" stroke="#72b7b2" stroke-width="2"/></g></g><path class="foreground" aria-hidden="true" d="" display="none"/></g><g transform="translate(0,0)"><path class="background" aria-hidden="true" d="M0,0h700v380h-700Z"/><g><g class="mark-line role-mark layer_0_marks" role="graphics-object" aria-roledescription="line mark container"><path aria-label="Vencimento: Aug 15, 2026; Taxa de compra (% a.a.): 10.26; Título: Tesouro IPCA+; Taxa (%): 10.26" role="graphics-symbol" aria-roledescription="line mark" d="M0,136.325L32.984,186.913L72.014,190L104.966,195.7L168.011,204.013L224.978,207.575L287.99,210.9" stroke="#e45756" stroke-width="2"/></g></g><path class="foreground" aria-hidden="true" d="" display="none"/></g><g transform="translate(0,0)"><path class="background" aria-hidden="true" d="M0,0h700v380h-700Z"/><g><g class="mark-line role-mark layer_0_marks" role="graphics-object" aria-roledescription="line mark container"><path aria-label="Vencimento: Jan 01, 2027; Taxa de compra (% a.a.): 13.91; Título: Tesouro Prefixado; Taxa (%): 13.91" role="graphics-symbol" aria-roledescription="line mark" d="M4.567,49.637L16.558,47.025L28.582,44.175L52.565,43.225L64.556,41.563" stroke="#54a24b" stroke-width="2"/></g></g><path class="foreground" aria-hidden="true" d="" display="none"/></g><g transform="translate(0,0)"><path class="background" aria-hidden="true" d="M0,0h700v380h-700Z"/><g><g class="mark-line role-mark layer_0_marks" role="graphics-object" aria-roledescription="line mark container"><path aria-label="Vencimento: Jan 01, 2027; Taxa de compra (% a.a.): 14.05; Título: Tesouro Prefixado com Juros Semestrais; Taxa (%): 14.05" role="graphics-symbol" aria-roledescription="line mark" d="M4.567,46.312L28.582,43.937L52.565,41.563L76.58,40.137L100.563,41.088L124.579,40.85" stroke="#eeca3b" stroke-width="2"/></g></g><path class="foreground" aria-hidden="true" d="" display="none"/></g><g transform="translate(0,0)"><path class="background" aria-hidden="true" d="M0,0h700v380h-700Z"/><g><g class="mark-line role-mark layer_0_marks" role="graphics-object" aria-roledescription="line mark container"><path aria-label="Vencimento: Mar 01, 2027; Taxa de compra (% a.a.): 0.01; Título: Tesouro Selic; Taxa (%): 0.01" role="graphics-symbol" aria-roledescription="line mark" d="M6.505,379.763L18.529,379.525L30.52,378.813L54.503,378.338" stroke="#ff9da6" stroke-width="2"/></g></g><path class="foreground" aria-hidden="true" d="" display="none"/></g><g transform="translate(0,0)"><path class="background" aria-hidden="true" d="M0,0h700v380h-700Z"/><g><g class="mark-line role-mark layer_0_marks" role="graphics-object" aria-roledescription="line mark container"><path aria-label="Vencimento: Dec 15, 2030; Taxa de compra (% a.a.): 8.16; Título: Tesouro EducA+; Taxa (%): 8.16" role="graphics-symbol" aria-roledescription="line mark" d="M52.006,186.2L63.998,187.15L76.022,187.863L88.013,189.05L100.005,190.475L111.996,192.375L124.02,194.275L136.012,196.175L148.003,198.313L159.994,199.975L172.019,201.4L184.01,202.825L196.001,203.775L207.993,204.725L220.017,205.438L232.008,206.15L244,206.863L255.991,207.575L268.015,208.288" stroke="#4c78a8" stroke-width="2"/></g></g><path class="foreground" aria-hidden="true" d="" display="none"/></g><g transform="translate(0,0)"><path class="background" aria-hidden="true" d="M0,0h700v380h-700Z"/><g><g class="mark-line role-mark layer_0_marks" role="graphics-object" aria-roledescription="line mark container"><path aria-label="Vencimento: Jan 01, 2031; Taxa de compra (% a.a.): 8.12; Título: Tesouro IGPM+ com Juros Semestrais; Taxa (%): 8.12" role="graphics-symbol" aria-roledescription="line mark" d="M52.565,187.15Z" stroke="#f58518" stroke-width="2"/></g></g><path class="foreground" aria-hidden="true" d="" display="none"/></g><g transform="translate(0,0)"><path class="background" aria-hidden="true" d="M0,0h700v380h-700Z"/><g><g class="mark-line role-mark layer_0_marks" role="graphics-object" aria-roledescription="line mark container"><path aria-label="Vencimento: Dec 15, 2049; Taxa de compra (% a.a.): 7.5; Título: Tesouro RendA+; Taxa (%): 7.50" role="graphics-symbol" aria-roledescription="line mark" d="M280.007,201.875L339.996,206.15L399.986,209.237L460.008,210.9L519.998,211.85L579.988,212.088L639.977,212.088L700,212.088" stroke="#b279a2" stroke-width="2"/></g></g><path class="foreground" aria-hidden="true" d="" display="none"/></g></g><g class="mark-symbol role-mark layer_1_marks" role="graphics-object" aria-roledescription="symbol mark container"><path aria-label="Vencimento: Aug 15, 2026; Taxa de compra (% a.a.): 10.26; Título: Tesouro IPCA+ com Juros Semestrais; Taxa (%): 10.26" role="graphics-symbol" aria-roledescription="point" transform="translate(0,136.32500000000002)" d="M2.739,0A2.739,2.739,0,1,1,-2.739,0A2.739,2.739,0,1,1,2.739,0" fill="#72b7b2" stroke-width="2" opacity="1"/><path aria-label="Vencimento: Aug 15, 2026; Taxa de compra (% a.a.): 10.26; Título: Tesouro IPCA+; Taxa (%): 10.26" role="graphics-symbol" aria-roledescription="point" transform="translate(0,136.32500000000002)" d="M2.739,0A2.739,2.739,0,1,1,-2.739,0A2.739,2.739,0,1,1,2.739,0" fill="#e45756" stroke-width="2" opacity="1"/><path aria-label="Vencimento: Jan 01, 2027; Taxa de compra (% a.a.): 13.91; Título: Tesouro Prefixado; Taxa (%): 13.91" role="graphics-symbol" aria-roledescription="point" transform="translate(4.566574365232083,49.637499999999996)" d="M2.739,0A2.739,2.739,0,1,1,-2.739,0A2.739,2.739,0,1,1,2.739,0" fill="#54a24b" stroke-width="2" opacity="1"/><path aria-label="Vencimento: Jan 01, 2027; Taxa de compra (% a.a.): 14.05; Título: Tesouro Prefixado com Juros Semestrais; Taxa (%): 14.05" role="graphics-symbol" aria-roledescription="point" transform="translate(4.566574365232083,46.312499999999986)" d="M2.739,0A2.739,2.739,0,1,1,-2.739,0A2.739,2.739,0,1,1,2.739,0" fill="#eeca3b" stroke-width="2" opacity="1"/><path aria-label="Vencimento: Mar 01, 2027; Taxa de compra (% a.a.): 0.01; Título: Tesouro Selic; Taxa (%): 0.01" role="graphics-symbol" aria-roledescription="point" transform="translate(6.504904491481672,379.7625)" d="M2.739,0A2.739,2.739,0,1,1,-2.739,0A2.739,2.739,0,1,1,2.739,0" fill="#ff9da6" stroke-width="2" opacity="1"/><path aria-label="Vencimento: Jan 01, 2028; Taxa de compra (% a.a.): 14.02; Título: Tesouro Prefixado; Taxa (%): 14.02" role="graphics-symbol" aria-roledescription="point" transform="translate(16.557938705589713,47.02500000000001)" d="M2.739,0A2.739,2.739,0,1,1,-2.739,0A2.739,2.739,0,1,1,2.739,0" fill="#54a24b" stroke-width="2" opacity="1"/><path aria-label="Vencimento: Mar 01, 2028; Taxa de compra (% a.a.): 0.02; Título: Tesouro Selic; Taxa (%): 0.02" role="graphics-symbol" aria-roledescription="point" transform="translate(18.529121884826584,379.52500000000003)" d="M2.739,0A2.739,2.739,0,1,1,-2.739,0A2.739,2.739,0,1,1,2.739,0" fill="#ff9da6" stroke-width="2" opacity="1"/><path aria-label="Vencimento: Jan 01, 2029; Taxa de compra (% a.a.): 14.14; Título: Tesouro Prefixado; Taxa (%): 14.14" role="graphics-symbol" aria-roledescription="point" transform="translate(28.58215609893462,44.17499999999998)" d="M2.739,0A2.739,2.739,0,1,1,-2.739,0A2.739,2.739,0,1,1,2.739,0" fill="#54a24b" stroke-width="2" opacity="1"/><path aria-label="Vencimento: Jan 01, 2029; Taxa de compra (% a.a.): 14.15; Título: Tesouro Prefixado com Juros Semestrais; Taxa (%): 14.15" role="graphics-symbol" aria-roledescription="point" transform="translate(28.58215609893462,43.93749999999999)" d="M2.739,0A2.739,2.739,0,1,1,-2.739,0A2.739,2.739,0,1,1,2.739,0" fill="#eeca3b" stroke-width="2" opacity="1"/><path aria-label="Vencimento: Mar 01, 2029; Taxa de compra (% a.a.): 0.05; Título: Tesouro Selic; Taxa (%): 0.05" role="graphics-symbol" aria-roledescription="point" transform="translate(30.52048622518421,378.8125)" d="M2.739,0A2.739,2.739,0,1,1,-2.739,0A2.739,2.739,0,1,1,2.739,0" fill="#ff9da6" stroke-width="2" opacity="1"/><path aria-label="Vencimento: May 15, 2029; Taxa de compra (% a.a.): 8.13; Título: Tesouro IPCA+; Taxa (%): 8.13" role="graphics-symbol" aria-roledescription="point" transform="translate(32.9844651992303,186.9125)" d="M2.739,0A2.739,2.739,0,1,1,-2.739,0A2.739,2.739,0,1,1,2.739,0" fill="#e45756" stroke-width="2" opacity="1"/><path aria-label="Vencimento: Aug 15, 2030; Taxa de compra (% a.a.): 8.17; Título: Tesouro IPCA+ com Juros Semestrais; Taxa (%): 8.17" role="graphics-symbol" aria-roledescription="point" transform="translate(47.9983104144178,185.9625)" d="M2.739,0A2.739,2.739,0,1,1,-2.739,0A2.739,2.739,0,1,1,2.739,0" fill="#72b7b2" stroke-width="2" opacity="1"/><path aria-label="Vencimento: Dec 15, 2030; Taxa de compra (% a.a.): 8.16; Título: Tesouro EducA+; Taxa (%): 8.16" role="graphics-symbol" aria-roledescription="point" transform="translate(52.0063828788661,186.2)" d="M2.739,0A2.739,2.739,0,1,1,-2.739,0A2.739,2.739,0,1,1,2.739,0" fill="#4c78a8" stroke-width="2" opacity="1"/><path aria-label="Vencimento: Jan 01, 2031; Taxa de compra (% a.a.): 14.18; Título: Tesouro Prefixado; Taxa (%): 14.18" role="graphics-symbol" aria-roledescription="point" transform="translate(52.56488477964988,43.22500000000001)" d="M2.739,0A2.739,2.739,0,1,1,-2.739,0A2.739,2.739,0,1,1,2.739,0" fill="#54a24b" stroke-width="2" opacity="1"/><path aria-label="Vencimento: Jan 01, 2031; Taxa de compra (% a.a.): 8.12; Título: Tesouro IGPM+ com Juros Semestrais; Taxa (%): 8.12" role="graphics-symbol" aria-roledescription="point" transform="translate(52.56488477964988,187.15)" d="M2.739,0A2.739,2.739,0,1,1,-2.739,0A2.739,2.739,0,1,1,2.739,0" fill="#f58518" stroke-width="2" opacity="1"/><path aria-label="Vencimento: Jan 01, 2031; Taxa de compra (% a.a.): 14.25; Título: Tesouro Prefixado com Juros Semestrais; Taxa (%): 14.25" role="graphics-symbol" aria-roledescription="point" transform="translate(52.56488477964988,41.5625)" d="M2.739,0A2.739,2.739,0,1,1,-2.739,0A2.739,2.739,0,1,1,2.739,0" fill="#eeca3b" stroke-width="2" opacity="1"/><path aria-label="Vencimento: Mar 01, 2031; Taxa de compra (% a.a.): 0.07; Título: Tesouro Selic; Taxa (%): 0.07" role="graphics-symbol" aria-roledescription="point" transform="translate(54.50321490589947,378.3375)" d="M2.739,0A2.739,2.739,0,1,1,-2.739,0A2.739,2.739,0,1,1,2.739,0" fill="#ff9da6" stroke-width="2" opacity="1"/><path aria-label="Vencimento: Dec 15, 2031; Taxa de compra (% a.a.): 8.12; Título: Tesouro EducA+; Taxa (%): 8.12" role="graphics-symbol" aria-roledescription="point" transform="translate(63.997747219223726,187.15)" d="M2.739,0A2.739,2.739,0,1,1,-2.739,0A2.739,2.739,0,1,1,2.739,0" fill="#4c78a8" stroke-width="2" opacity="1"/><path aria-label="Vencimento: Jan 01, 2032; Taxa de compra (% a.a.): 14.25; Título: Tesouro Prefixado; Taxa (%): 14.25" role="graphics-symbol" aria-roledescription="point" transform="translate(64.55624912000751,41.5625)" d="M2.739,0A2.739,2.739,0,1,1,-2.739,0A2.739,2.739,0,1,1,2.739,0" fill="#54a24b" stroke-width="2" opacity="1"/><path aria-label="Vencimento: Aug 15, 2032; Taxa de compra (% a.a.): 8.02; Título: Tesouro IPCA+ com Juros Semestrais; Taxa (%): 8.02" role="graphics-symbol" aria-roledescription="point" transform="translate(72.01389214812033,189.525)" d="M2.739,0A2.739,2.739,0,1,1,-2.739,0A2.739,2.739,0,1,1,2.739,0" fill="#72b7b2" stroke-width="2" opacity="1"/><path aria-label="Vencimento: Aug 15, 2032; Taxa de compra (% a.a.): 8; Título: Tesouro IPCA+; Taxa (%): 8.00" role="graphics-symbol" aria-roledescription="point" transform="translate(72.01389214812033,190)" d="M2.739,0A2.739,2.739,0,1,1,-2.739,0A2.739,2.739,0,1,1,2.739,0" fill="#e45756" stroke-width="2" opacity="1"/><path aria-label="Vencimento: Dec 15, 2032; Taxa de compra (% a.a.): 8.09; Título: Tesouro EducA+; Taxa (%): 8.09" role="graphics-symbol" aria-roledescription="point" transform="translate(76.02196461256864,187.8625)" d="M2.739,0A2.739,2.739,0,1,1,-2.739,0A2.739,2.739,0,1,1,2.739,0" fill="#4c78a8" stroke-width="2" opacity="1"/><path aria-label="Vencimento: Jan 01, 2033; Taxa de compra (% a.a.): 14.31; Título: Tesouro Prefixado com Juros Semestrais; Taxa (%): 14.31" role="graphics-symbol" aria-roledescription="point" transform="translate(76.58046651335242,40.13749999999999)" d="M2.739,0A2.739,2.739,0,1,1,-2.739,0A2.739,2.739,0,1,1,2.739,0" fill="#eeca3b" stroke-width="2" opacity="1"/><path aria-label="Vencimento: Dec 15, 2033; Taxa de compra (% a.a.): 8.04; Título: Tesouro EducA+; Taxa (%): 8.04" role="graphics-symbol" aria-roledescription="point" transform="translate(88.01332895292626,189.05)" d="M2.739,0A2.739,2.739,0,1,1,-2.739,0A2.739,2.739,0,1,1,2.739,0" fill="#4c78a8" stroke-width="2" opacity="1"/><path aria-label="Vencimento: Dec 15, 2034; Taxa de compra (% a.a.): 7.98; Título: Tesouro EducA+; Taxa (%): 7.98" role="graphics-symbol" aria-roledescription="point" transform="translate(100.0046932932839,190.475)" d="M2.739,0A2.739,2.739,0,1,1,-2.739,0A2.739,2.739,0,1,1,2.739,0" fill="#4c78a8" stroke-width="2" opacity="1"/><path aria-label="Vencimento: Jan 01, 2035; Taxa de compra (% a.a.): 14.27; Título: Tesouro Prefixado com Juros Semestrais; Taxa (%): 14.27" role="graphics-symbol" aria-roledescription="point" transform="translate(100.56319519406767,41.08750000000001)" d="M2.739,0A2.739,2.739,0,1,1,-2.739,0A2.739,2.739,0,1,1,2.739,0" fill="#eeca3b" stroke-width="2" opacity="1"/><path aria-label="Vencimento: May 15, 2035; Taxa de compra (% a.a.): 7.82; Título: Tesouro IPCA+ com Juros Semestrais; Taxa (%): 7.82" role="graphics-symbol" aria-roledescription="point" transform="translate(104.96550429436336,194.275)" d="M2.739,0A2.739,2.739,0,1,1,-2.739,0A2.739,2.739,0,1,1,2.739,0" fill="#72b7b2" stroke-width="2" opacity="1"/><path aria-label="Vencimento: May 15, 2035; Taxa de compra (% a.a.): 7.76; Título: Tesouro IPCA+; Taxa (%): 7.76" role="graphics-symbol" aria-roledescription="point" transform="translate(104.96550429436336,195.70000000000002)" d="M2.739,0A2.739,2.739,0,1,1,-2.739,0A2.739,2.739,0,1,1,2.739,0" fill="#e45756" stroke-width="2" opacity="1"/><path aria-label="Vencimento: Dec 15, 2035; Taxa de compra (% a.a.): 7.9; Título: Tesouro EducA+; Taxa (%): 7.90" role="graphics-symbol" aria-roledescription="point" transform="translate(111.99605763364153,192.375)" d="M2.739,0A2.739,2.739,0,1,1,-2.739,0A2.739,2.739,0,1,1,2.739,0" fill="#4c78a8" stroke-width="2" opacity="1"/><path aria-label="Vencimento: Dec 15, 2036; Taxa de compra (% a.a.): 7.82; Título: Tesouro EducA+; Taxa (%): 7.82" role="graphics-symbol" aria-roledescription="point" transform="translate(124.02027502698644,194.275)" d="M2.739,0A2.739,2.739,0,1,1,-2.739,0A2.739,2.739,0,1,1,2.739,0" fill="#4c78a8" stroke-width="2" opacity="1"/><path aria-label="Vencimento: Jan 01, 2037; Taxa de compra (% a.a.): 14.28; Título: Tesouro Prefixado com Juros Semestrais; Taxa (%): 14.28" role="graphics-symbol" aria-roledescription="point" transform="translate(124.5787769277702,40.850000000000016)" d="M2.739,0A2.739,2.739,0,1,1,-2.739,0A2.739,2.739,0,1,1,2.739,0" fill="#eeca3b" stroke-width="2" opacity="1"/><path aria-label="Vencimento: May 15, 2037; Taxa de compra (% a.a.): 7.67; Título: Tesouro IPCA+ com Juros Semestrais; Taxa (%): 7.67" role="graphics-symbol" aria-roledescription="point" transform="translate(128.98108602806587,197.8375)" d="M2.739,0A2.739,2.739,0,1,1,-2.739,0A2.739,2.739,0,1,1,2.739,0" fill="#72b7b2" stroke-width="2" opacity="1"/><path aria-label="Vencimento: Dec 15, 2037; Taxa de compra (% a.a.): 7.74; Título: Tesouro EducA+; Taxa (%): 7.74" role="graphics-symbol" aria-roledescription="point" transform="translate(136.01163936734406,196.17499999999998)" d="M2.739,0A2.739,2.739,0,1,1,-2.739,0A2.739,2.739,0,1,1,2.739,0" fill="#4c78a8" stroke-width="2" opacity="1"/><path aria-label="Vencimento: Dec 15, 2038; Taxa de compra (% a.a.): 7.65; Título: Tesouro EducA+; Taxa (%): 7.65" role="graphics-symbol" aria-roledescription="point" transform="translate(148.00300370770168,198.3125)" d="M2.739,0A2.739,2.739,0,1,1,-2.739,0A2.739,2.739,0,1,1,2.739,0" fill="#4c78a8" stroke-width="2" opacity="1"/><path aria-label="Vencimento: Dec 15, 2039; Taxa de compra (% a.a.): 7.58; Título: Tesouro EducA+; Taxa (%): 7.58" role="graphics-symbol" aria-roledescription="point" transform="translate(159.99436804805933,199.975)" d="M2.739,0A2.739,2.739,0,1,1,-2.739,0A2.739,2.739,0,1,1,2.739,0" fill="#4c78a8" stroke-width="2" opacity="1"/><path aria-label="Vencimento: Aug 15, 2040; Taxa de compra (% a.a.): 7.55; Título: Tesouro IPCA+ com Juros Semestrais; Taxa (%): 7.55" role="graphics-symbol" aria-roledescription="point" transform="translate(168.01051297695594,200.68749999999997)" d="M2.739,0A2.739,2.739,0,1,1,-2.739,0A2.739,2.739,0,1,1,2.739,0" fill="#72b7b2" stroke-width="2" opacity="1"/><path aria-label="Vencimento: Aug 15, 2040; Taxa de compra (% a.a.): 7.41; Título: Tesouro IPCA+; Taxa (%): 7.41" role="graphics-symbol" aria-roledescription="point" transform="translate(168.01051297695594,204.0125)" d="M2.739,0A2.739,2.739,0,1,1,-2.739,0A2.739,2.739,0,1,1,2.739,0" fill="#e45756" stroke-width="2" opacity="1"/><path aria-label="Vencimento: Dec 15, 2040; Taxa de compra (% a.a.): 7.52; Título: Tesouro EducA+; Taxa (%): 7.52" role="graphics-symbol" aria-roledescription="point" transform="translate(172.01858544140424,201.4)" d="M2.739,0A2.739,2.739,0,1,1,-2.739,0A2.739,2.739,0,1,1,2.739,0" fill="#4c78a8" stroke-width="2" opacity="1"/><path aria-label="Vencimento: Dec 15, 2041; Taxa de compra (% a.a.): 7.46; Título: Tesouro EducA+; Taxa (%): 7.46" role="graphics-symbol" aria-roledescription="point" transform="translate(184.00994978176186,202.825)" d="M2.739,0A2.739,2.739,0,1,1,-2.739,0A2.739,2.739,0,1,1,2.739,0" fill="#4c78a8" stroke-width="2" opacity="1"/><path aria-label="Vencimento: Dec 15, 2042; Taxa de compra (% a.a.): 7.42; Título: Tesouro EducA+; Taxa (%): 7.42" role="graphics-symbol" aria-roledescription="point" transform="translate(196.0013141221195,203.775)" d="M2.739,0A2.739,2.739,0,1,1,-2.739,0A2.739,2.739,0,1,1,2.739,0" fill="#4c78a8" stroke-width="2" opacity="1"/><path aria-label="Vencimento: Dec 15, 2043; Taxa de compra (% a.a.): 7.38; Título: Tesouro EducA+; Taxa (%): 7.38" role="graphics-symbol" aria-roledescription="point" transform="translate(207.9926784624771,204.72500000000002)" d="M2.739,0A2.739,2.739,0,1,1,-2.739,0A2.739,2.739,0,1,1,2.739,0" fill="#4c78a8" stroke-width="2" opacity="1"/><path aria-label="Vencimento: Dec 15, 2044; Taxa de compra (% a.a.): 7.35; Título: Tesouro EducA+; Taxa (%): 7.35" role="graphics-symbol" aria-roledescription="point" transform="translate(220.01689585582204,205.4375)" d="M2.739,0A2.739,2.739,0,1,1,-2.739,0A2.739,2.739,0,1,1,2.739,0" fill="#4c78a8" stroke-width="2" opacity="1"/><path aria-label="Vencimento: May 15, 2045; Taxa de compra (% a.a.): 7.44; Título: Tesouro IPCA+ com Juros Semestrais; Taxa (%): 7.44" role="graphics-symbol" aria-roledescription="point" transform="translate(224.97770685690148,203.29999999999998)" d="M2.739,0A2.739,2.739,0,1,1,-2.739,0A2.739,2.739,0,1,1,2.739,0" fill="#72b7b2" stroke-width="2" opacity="1"/><path aria-label="Vencimento: May 15, 2045; Taxa de compra (% a.a.): 7.26; Título: Tesouro IPCA+; Taxa (%): 7.26" role="graphics-symbol" aria-roledescription="point" transform="translate(224.97770685690148,207.57500000000002)" d="M2.739,0A2.739,2.739,0,1,1,-2.739,0A2.739,2.739,0,1,1,2.739,0" fill="#e45756" stroke-width="2" opacity="1"/><path aria-label="Vencimento: Dec 15, 2045; Taxa de compra (% a.a.): 7.32; Título: Tesouro EducA+; Taxa (%): 7.32" role="graphics-symbol" aria-roledescription="point" transform="translate(232.00826019617963,206.15)" d="M2.739,0A2.739,2.739,0,1,1,-2.739,0A2.739,2.739,0,1,1,2.739,0" fill="#4c78a8" stroke-width="2" opacity="1"/><path aria-label="Vencimento: Dec 15, 2046; Taxa de compra (% a.a.): 7.29; Título: Tesouro EducA+; Taxa (%): 7.29" role="graphics-symbol" aria-roledescription="point" transform="translate(243.99962453653728,206.8625)" d="M2.739,0A2.739,2.739,0,1,1,-2.739,0A2.739,2.739,0,1,1,2.739,0" fill="#4c78a8" stroke-width="2" opacity="1"/><path aria-label="Vencimento: Dec 15, 2047; Taxa de compra (% a.a.): 7.26; Título: Tesouro EducA+; Taxa (%): 7.26" role="graphics-symbol" aria-roledescription="point" transform="translate(255.9909888768949,207.57500000000002)" d="M2.739,0A2.739,2.739,0,1,1,-2.739,0A2.739,2.739,0,1,1,2.739,0" fill="#4c78a8" stroke-width="2" opacity="1"/><path aria-label="Vencimento: Dec 15, 2048; Taxa de compra (% a.a.): 7.23; Título: Tesouro EducA+; Taxa (%): 7.23" role="graphics-symbol" aria-roledescription="point" transform="translate(268.01520627023984,208.2875)" d="M2.739,0A2.739,2.739,0,1,1,-2.739,0A2.739,2.739,0,1,1,2.739,0" fill="#4c78a8" stroke-width="2" opacity="1"/><path aria-label="Vencimento: Dec 15, 2049; Taxa de compra (% a.a.): 7.5; Título: Tesouro RendA+; Taxa (%): 7.50" role="graphics-symbol" aria-roledescription="point" transform="translate(280.00657061059746,201.875)" d="M2.739,0A2.739,2.739,0,1,1,-2.739,0A2.739,2.739,0,1,1,2.739,0" fill="#b279a2" stroke-width="2" opacity="1"/><path aria-label="Vencimento: Aug 15, 2050; Taxa de compra (% a.a.): 7.35; Título: Tesouro IPCA+ com Juros Semestrais; Taxa (%): 7.35" role="graphics-symbol" aria-roledescription="point" transform="translate(287.98986248650675,205.4375)" d="M2.739,0A2.739,2.739,0,1,1,-2.739,0A2.739,2.739,0,1,1,2.739,0" fill="#72b7b2" stroke-width="2" opacity="1"/><path aria-label="Vencimento: Aug 15, 2050; Taxa de compra (% a.a.): 7.12; Título: Tesouro IPCA+; Taxa (%): 7.12" role="graphics-symbol" aria-roledescription="point" transform="translate(287.98986248650675,210.89999999999998)" d="M2.739,0A2.739,2.739,0,1,1,-2.739,0A2.739,2.739,0,1,1,2.739,0" fill="#e45756" stroke-width="2" opacity="1"/><path aria-label="Vencimento: Dec 15, 2054; Taxa de compra (% a.a.): 7.32; Título: Tesouro RendA+; Taxa (%): 7.32" role="graphics-symbol" aria-roledescription="point" transform="translate(339.9962453653729,206.15)" d="M2.739,0A2.739,2.739,0,1,1,-2.739,0A2.739,2.739,0,1,1,2.739,0" fill="#b279a2" stroke-width="2" opacity="1"/><path aria-label="Vencimento: May 15, 2055; Taxa de compra (% a.a.): 7.32; Título: Tesouro IPCA+ com Juros Semestrais; Taxa (%): 7.32" role="graphics-symbol" aria-roledescription="point" transform="translate(344.9570563664524,206.15)" d="M2.739,0A2.739,2.739,0,1,1,-2.739,0A2.739,2.739,0,1,1,2.739,0" fill="#72b7b2" stroke-width="2" opacity="1"/><path aria-label="Vencimento: Dec 15, 2059; Taxa de compra (% a.a.): 7.19; Título: Tesouro RendA+; Taxa (%): 7.19" role="graphics-symbol" aria-roledescription="point" transform="translate(399.98592012014836,209.23749999999998)" d="M2.739,0A2.739,2.739,0,1,1,-2.739,0A2.739,2.739,0,1,1,2.739,0" fill="#b279a2" stroke-width="2" opacity="1"/><path aria-label="Vencimento: Aug 15, 2060; Taxa de compra (% a.a.): 7.31; Título: Tesouro IPCA+ com Juros Semestrais; Taxa (%): 7.31" role="graphics-symbol" aria-roledescription="point" transform="translate(408.00206504904486,206.38750000000002)" d="M2.739,0A2.739,2.739,0,1,1,-2.739,0A2.739,2.739,0,1,1,2.739,0" fill="#72b7b2" stroke-width="2" opacity="1"/><path aria-label="Vencimento: Dec 15, 2064; Taxa de compra (% a.a.): 7.12; Título: Tesouro RendA+; Taxa (%): 7.12" role="graphics-symbol" aria-roledescription="point" transform="translate(460.008447927911,210.89999999999998)" d="M2.739,0A2.739,2.739,0,1,1,-2.739,0A2.739,2.739,0,1,1,2.739,0" fill="#b279a2" stroke-width="2" opacity="1"/><path aria-label="Vencimento: Dec 15, 2069; Taxa de compra (% a.a.): 7.08; Título: Tesouro RendA+; Taxa (%): 7.08" role="graphics-symbol" aria-roledescription="point" transform="translate(519.9981226826865,211.85)" d="M2.739,0A2.739,2.739,0,1,1,-2.739,0A2.739,2.739,0,1,1,2.739,0" fill="#b279a2" stroke-width="2" opacity="1"/><path aria-label="Vencimento: Dec 15, 2074; Taxa de compra (% a.a.): 7.07; Título: Tesouro RendA+; Taxa (%): 7.07" role="graphics-symbol" aria-roledescription="point" transform="translate(579.9877974374618,212.0875)" d="M2.739,0A2.739,2.739,0,1,1,-2.739,0A2.739,2.739,0,1,1,2.739,0" fill="#b279a2" stroke-width="2" opacity="1"/><path aria-label="Vencimento: Dec 15, 2079; Taxa de compra (% a.a.): 7.07; Título: Tesouro RendA+; Taxa (%): 7.07" role="graphics-symbol" aria-roledescription="point" transform="translate(639.9774721922373,212.0875)" d="M2.739,0A2.739,2.739,0,1,1,-2.739,0A2.739,2.739,0,1,1,2.739,0" fill="#b279a2" stroke-width="2" opacity="1"/><path aria-label="Vencimento: Dec 15, 2084; Taxa de compra (% a.a.): 7.07; Título: Tesouro RendA+; Taxa (%): 7.07" role="graphics-symbol" aria-roledescription="point" transform="translate(700,212.0875)" d="M2.739,0A2.739,2.739,0,1,1,-2.739,0A2.739,2.739,0,1,1,2.739,0" fill="#b279a2" stroke-width="2" opacity="1"/></g><g class="mark-group role-legend" role="graphics-symbol" aria-roledescription="legend" aria-label="Symbol legend titled 'Título' for fill color and stroke color with 8 values: Tesouro EducA+, Tesouro IGPM+ com Juros Semestrais, Tesouro IPCA+, Tesouro IPCA+ com Juros Semestrais, Tesouro Prefixado, ending with Tesouro Selic"><g transform="translate(720,0)"><path class="background" aria-hidden="true" d="M0,0h176v141h-176Z" pointer-events="none"/><g><g class="mark-group role-legend-entry"><g transform="translate(0,16)"><path class="background" aria-hidden="true" d="M0,0h0v0h0Z" pointer-events="none"/><g><g class="mark-group role-scope" role="graphics-object" aria-roledescription="group mark container"><g transform="translate(0,0)"><path class="background" aria-hidden="true" d="M0,0h176v12.5h-176Z" pointer-events="none" opacity="1"/><g><g class="mark-symbol role-legend-symbol" pointer-events="none"><path transform="translate(6,6)" d="M5,0A5,5,0,1,1,-5,0A5,5,0,1,1,5,0" fill="#4c78a8" stroke="#4c78a8" stroke-width="1.5" opacity="1"/></g><g class="mark-text role-legend-label" pointer-events="none"><text text-anchor="start" transform="translate(16,9)" font-family="sans-serif" font-size="10px" fill="#000" opacity="1">Tesouro EducA+</text></g></g><path class="foreground" aria-hidden="true" d="" pointer-events="none" display="none"/></g><g transform="translate(0,16)"><path class="background" aria-hidden="true" d="M0,0h176v12.5h-176Z" pointer-events="none" opacity="1"/><g><g class="mark-symbol role-legend-symbol" pointer-events="none"><path transform="translate(6,6)" d="M5,0A5,5,0,1,1,-5,0A5,5,0,1,1,5,0" fill="#f58518" stroke="#f58518" stroke-width="1.5" opacity="1"/></g><g class="mark-text role-legend-label" pointer-events="none"><text text-anchor="start" transform="translate(16,9)" font-family="sans-serif" font-size="10px" fill="#000" opacity="1">Tesouro IGPM+ com Juros Seme…</text></g></g><path class="foreground" aria-hidden="true" d="" pointer-events="none" display="none"/></g><g transform="translate(0,32)"><path class="background" aria-hidden="true" d="M0,0h176v12.5h-176Z" pointer-events="none" opacity="1"/><g><g class="mark-symbol role-legend-symbol" pointer-events="none"><path transform="translate(6,6)" d="M5,0A5,5,0,1,1,-5,0A5,5,0,1,1,5,0" fill="#e45756" stroke="#e45756" stroke-width="1.5" opacity="1"/></g><g class="mark-text role-legend-label" pointer-events="none"><text text-anchor="start" transform="translate(16,9)" font-family="sans-serif" font-size="10px" fill="#000" opacity="1">Tesouro IPCA+</text></g></g><path class="foreground" aria-hidden="true" d="" pointer-events="none" display="none"/></g><g transform="translate(0,48)"><path class="background" aria-hidden="true" d="M0,0h176v12.5h-176Z" pointer-events="none" opacity="1"/><g><g class="mark-symbol role-legend-symbol" pointer-events="none"><path transform="translate(6,6)" d="M5,0A5,5,0,1,1,-5,0A5,5,0,1,1,5,0" fill="#72b7b2" stroke="#72b7b2" stroke-width="1.5" opacity="1"/></g><g class="mark-text role-legend-label" pointer-events="none"><text text-anchor="start" transform="translate(16,9)" font-family="sans-serif" font-size="10px" fill="#000" opacity="1">Tesouro IPCA+ com Juros Seme…</text></g></g><path class="foreground" aria-hidden="true" d="" pointer-events="none" display="none"/></g><g transform="translate(0,64)"><path class="background" aria-hidden="true" d="M0,0h176v12.5h-176Z" pointer-events="none" opacity="1"/><g><g class="mark-symbol role-legend-symbol" pointer-events="none"><path transform="translate(6,6)" d="M5,0A5,5,0,1,1,-5,0A5,5,0,1,1,5,0" fill="#54a24b" stroke="#54a24b" stroke-width="1.5" opacity="1"/></g><g class="mark-text role-legend-label" pointer-events="none"><text text-anchor="start" transform="translate(16,9)" font-family="sans-serif" font-size="10px" fill="#000" opacity="1">Tesouro Prefixado</text></g></g><path class="foreground" aria-hidden="true" d="" pointer-events="none" display="none"/></g><g transform="translate(0,80)"><path class="background" aria-hidden="true" d="M0,0h176v12.5h-176Z" pointer-events="none" opacity="1"/><g><g class="mark-symbol role-legend-symbol" pointer-events="none"><path transform="translate(6,6)" d="M5,0A5,5,0,1,1,-5,0A5,5,0,1,1,5,0" fill="#eeca3b" stroke="#eeca3b" stroke-width="1.5" opacity="1"/></g><g class="mark-text role-legend-label" pointer-events="none"><text text-anchor="start" transform="translate(16,9)" font-family="sans-serif" font-size="10px" fill="#000" opacity="1">Tesouro Prefixado com Juros Se…</text></g></g><path class="foreground" aria-hidden="true" d="" pointer-events="none" display="none"/></g><g transform="translate(0,96)"><path class="background" aria-hidden="true" d="M0,0h176v12.5h-176Z" pointer-events="none" opacity="1"/><g><g class="mark-symbol role-legend-symbol" pointer-events="none"><path transform="translate(6,6)" d="M5,0A5,5,0,1,1,-5,0A5,5,0,1,1,5,0" fill="#b279a2" stroke="#b279a2" stroke-width="1.5" opacity="1"/></g><g class="mark-text role-legend-label" pointer-events="none"><text text-anchor="start" transform="translate(16,9)" font-family="sans-serif" font-size="10px" fill="#000" opacity="1">Tesouro RendA+</text></g></g><path class="foreground" aria-hidden="true" d="" pointer-events="none" display="none"/></g><g transform="translate(0,112)"><path class="background" aria-hidden="true" d="M0,0h176v12.5h-176Z" pointer-events="none" opacity="1"/><g><g class="mark-symbol role-legend-symbol" pointer-events="none"><path transform="translate(6,6)" d="M5,0A5,5,0,1,1,-5,0A5,5,0,1,1,5,0" fill="#ff9da6" stroke="#ff9da6" stroke-width="1.5" opacity="1"/></g><g class="mark-text role-legend-label" pointer-events="none"><text text-anchor="start" transform="translate(16,9)" font-family="sans-serif" font-size="10px" fill="#000" opacity="1">Tesouro Selic</text></g></g><path class="foreground" aria-hidden="true" d="" pointer-events="none" display="none"/></g></g></g><path class="foreground" aria-hidden="true" d="" pointer-events="none" display="none"/></g></g><g class="mark-text role-legend-title" pointer-events="none"><text text-anchor="start" transform="translate(0,9)" font-family="sans-serif" font-size="11px" font-weight="bold" fill="#000" opacity="1">Título</text></g></g><path class="foreground" aria-hidden="true" d="" pointer-events="none" display="none"/></g></g><g class="mark-group role-title"><g transform="translate(350,-22)"><path class="background" aria-hidden="true" d="M0,0h0v0h0Z" pointer-events="none"/><g><g class="mark-text role-title-text" role="graphics-symbol" aria-roledescription="title" aria-label="Title text 'Curva de juros do Tesouro Direto — 2026-06-03'" pointer-events="none"><text text-anchor="middle" transform="translate(0,10)" font-family="sans-serif" font-size="13px" font-weight="bold" fill="#000" opacity="1">Curva de juros do Tesouro Direto — 2026-06-03</text></g></g><path class="foreground" aria-hidden="true" d="" pointer-events="none" display="none"/></g></g></g><path class="foreground" aria-hidden="true" d="" display="none"/></g></g></g></svg>